<svg xmlns:xlink="http://www.w3.org/1999/xlink" xmlns="http://www.w3.org/2000/svg" version="1.2" baseProfile="tiny" width="110.6" height="75.6" viewBox="21 46 158 108"><path d="M25,50 l150,0 0,100 -150,0 z" stroke-width="4px" stroke="#000000" fill="#FF8080" fill-opacity="1"></path><path d="m 110,95 10,0 m -10,10 10,0 m -10,10 10,0 m -10,-30 10,0 m -10,-5 -10,10 -30,0 0,20 30,0 10,10 z" stroke-width="4px" stroke="#000000" fill="none"></path><g transform="translate(0,-30)"><g transform="translate(30,30)"><g transform="scale(0.7)"><path d="M100,100 L130,88 c15,0 15,24 0,24 L100,100 70,112 c-15,0 -15,-24 0,-24 Z" stroke-width="4px" stroke="#000000" fill="black"></path></g></g></g></svg>