<svg xmlns:xlink="http://www.w3.org/1999/xlink" xmlns="http://www.w3.org/2000/svg" version="1.2" baseProfile="tiny" width="89.6" height="89.6" viewBox="36 16 128 128"><path d="m 40,65 0,70 120,0 0,-70 z m 70,35 c 0,5.523 -4.477,10 -10,10 -5.5228,0 -10,-4.477 -10,-10 0,-5.5228 4.4772,-10 10,-10 5.523,0 10,4.4772 10,10 z m 35,0 c 0,5.523 -4.477,10 -10,10 -5.523,0 -10,-4.477 -10,-10 0,-5.5228 4.477,-10 10,-10 5.523,0 10,4.4772 10,10 z m -70,0 c 0,5.523 -4.4772,10 -10,10 -5.5228,0 -10,-4.477 -10,-10 0,-5.5228 4.4772,-10 10,-10 5.5228,0 10,4.4772 10,10 z" stroke-width="4px" stroke="#000000" fill="none"></path><text x="100" y="60" text-anchor="middle" font-size="35" font-family="Arial" font-weight="bold" stroke-width="4px" stroke="none" fill="black">S</text></svg>