<svg xmlns:xlink="http://www.w3.org/1999/xlink" xmlns="http://www.w3.org/2000/svg" version="1.2" baseProfile="tiny" width="110.6" height="75.6" viewBox="21 46 158 108"><path d="M25,50 l150,0 0,100 -150,0 z" stroke-width="4px" stroke="#000000" fill="#FF8080" fill-opacity="1"></path><path d="m 65,95 70,0 m 0,10 c 0,5.5 -4.5,10 -10,10 -5.5,0 -10,-4.5 -10,-10 0,-5.5 4.5,-10 10,-10 5.5,0 10,4.5 10,10 z m -50,0 c 0,5.5 -4.5,10 -10,10 -5.5,0 -10,-4.5 -10,-10 0,-5.5 4.5,-10 10,-10 5.5,0 10,4.5 10,10 z" stroke-width="4px" stroke="#000000" fill="none"></path><text x="100" y="77" text-anchor="middle" font-size="22" font-family="Arial" font-weight="bold" stroke-width="4px" stroke="none" fill="black">DRUG</text></svg>