<svg xmlns:xlink="http://www.w3.org/1999/xlink" xmlns="http://www.w3.org/2000/svg" version="1.2" baseProfile="tiny" width="110.6" height="75.6" viewBox="21 46 158 108"><path d="M25,50 l150,0 0,100 -150,0 z" stroke-width="4px" stroke="#000000" fill="#FFFF80" fill-opacity="1"></path><path d="m 95.1,109.3 c 0,0 -20.8,4.9 -30.1,6.7 -2.2,0.4 -5.7,0.2 -6.5,-2 -0.4,-1.1 3.3,-6.6 6.5,-7.3 8.7,-1.9 25.7,-5.5 25.7,-5.5 l 3.1,-16.1 4,-0.8 0.3,15.9 25.6,-5.8 6.5,-13.2 5.3,-1.4 -3.3,16.1 14,4.8 -4.3,1.2 -13.7,-2.8 -23.6,6.7 31.6,11.8 -5.5,2.5 z" stroke-width="4px" stroke="none" fill="black"></path></svg>