<svg xmlns:xlink="http://www.w3.org/1999/xlink" xmlns="http://www.w3.org/2000/svg" version="1.2" baseProfile="tiny" width="75.6" height="75.6" viewBox="46 46 108 108"><path d="m 106.6,101.6 0,26.3 -13.1,-13.1 z m -19.7,0 0,26.3 -13.1,-13.1 z m 39.4,0 0,26.3 -13.1,-13.1 13.1,-13.1 M 100,75.3 c -14.5,0 -26.3,11.8 -26.3,26.3 l 52.5,0 C 126.3,87.1 114.5,75.3 100,75.3 z m -6.6,0 0,-13.1 13.1,0 0,13.1 m -29.8,12.3 -9.3,-9.3 9.3,-9.3 9.3,9.3 m 27.9,0 9.3,-9.3 9.3,9.3 -9.3,9.3" stroke-width="4px" stroke="#000000" fill="#AAFFAA"></path></svg>