<svg xmlns:xlink="http://www.w3.org/1999/xlink" xmlns="http://www.w3.org/2000/svg" version="1.2" baseProfile="tiny" width="75.6" height="75.6" viewBox="46 46 108 108"><path d="M 115.9,73 126.5,62.4 137.1,73 126.5,83.6 m -53,0 L 62.9,73 73.5,62.4 84.1,73 m 8.4,-3 0,-15 15,0 0,15 m 22.5,30 c 0,16.6 -13.4,30 -30,30 -16.6,0 -30,-13.4 -30,-30 0,-16.6 13.4,-30 30,-30 C 116.6,70 130,83.4 130,100 z" stroke-width="4px" stroke="#000000" fill="#AAFFAA"></path><path d="m 135,65 -70,70 m 0,-70 70,70" stroke-width="5px" stroke="#000000" fill="black"></path><path d="m 75,140 5,-10 5,10 5,-10 5,10 5,-10 5,10 5,-10 5,10 5,-10 5,10" stroke-width="4px" stroke="#000000" fill="none"></path></svg>