<svg xmlns="http://www.w3.org/2000/svg" version="1.2" baseProfile="tiny" width="375.04" height="375.04" viewBox="26.75 26.75 146.5 146.5"><path d="M63,63 C63,20 137,20 137,63 C180,63 180,137 137,137 C137,180 63,180 63,137 C20,137 20,63 63,63 Z" stroke-width="4" stroke="black" fill="rgb(255,255,128)" fill-opacity="1"  stroke-dasharray="5,5"></path><path d="M40,75 l15,25 -15,25 M160,75 l-15,25 15,25" stroke-width="4" stroke="black" fill="none" ></path><path d="M100,80 l0,40 M81,90.5 l38,19 M81,109.5 l38,-19" stroke-width="4" stroke="black" fill="none" ></path><circle cx="100" cy="100" r="20" stroke-width="4" stroke="black" fill="none" ></circle><g transform="translate(0,-50)" stroke-width="4" stroke="black" fill="black" ><path d="M60,120 l80,0" fill="none" ></path><circle cx="65" cy="125" r="5" fill="none" ></circle><circle cx="75" cy="125" r="5" fill="none" ></circle><circle cx="125" cy="125" r="5" fill="none" ></circle><circle cx="135" cy="125" r="5" fill="none" ></circle></g></svg>