<svg xmlns="http://www.w3.org/2000/svg" version="1.2" baseProfile="tiny" width="375.04" height="375.04" viewBox="26.75 26.75 146.5 146.5"><path d="M63,63 C63,20 137,20 137,63 C180,63 180,137 137,137 C137,180 63,180 63,137 C20,137 20,63 63,63 Z" stroke-width="4" stroke="black" stroke-dasharray="5,5" fill="rgb(255,255,128)" fill-opacity="1" ></path><path d="M40,75 l15,25 -15,25 M160,75 l-15,25 15,25 M45,120 l110,0 " stroke-width="4" stroke="black" fill="none" ></path><path d="m 105,85 c -5,10 -5,20 0,30 m 0,-30 c -20,0 -20,30 0,30" stroke-width="4" stroke="black" fill="none" ></path></svg>