<svg xmlns="http://www.w3.org/2000/svg" version="1.2" baseProfile="tiny" width="375.04" height="375.04" viewBox="26.75 26.75 146.5 146.5"><path d="M63,63 C63,20 137,20 137,63 C180,63 180,137 137,137 C137,180 63,180 63,137 C20,137 20,63 63,63 Z" stroke-width="4" stroke="black" stroke-dasharray="5,5" fill="rgb(255,255,128)" fill-opacity="1" ></path><path d="M160,75 l-15,25 15,25" stroke-width="4" stroke="black" fill="none" ></path><path d="M100,80 l0,40 M81,90.5 l38,19 M81,109.5 l38,-19" stroke-width="4" stroke="black" fill="none" ></path><circle cx="100" cy="100" r="20" stroke-width="4" stroke="black" fill="none" ></circle><path d="M80,70 l40,0 M80,80 l25,-25 M100,80 l0,40 M81,90.5 l38,19 M81,109.5 l38,-19" stroke-width="4" stroke="black" fill="none" ></path><circle cx="100" cy="100" r="20" stroke-width="4" stroke="black" fill="none" ></circle></svg>