<svg xmlns:xlink="http://www.w3.org/1999/xlink" xmlns="http://www.w3.org/2000/svg" version="1.2" baseProfile="tiny" width="75.6" height="75.6" viewBox="46 46 108 108"><path d="m 117.7,75 c 3.5,-3.5 7.1,-7.1 7.1,-7.1 l 7.1,7.1 -7.1,7.1 m -49.5,0 c -3.5,-3.5 -7.1,-7.1 -7.1,-7.1 l 7.1,-7.1 7.1,7.1 M 95,70 c 0,-5 0,-10 0,-10 l 10,0 0,10 m 25,30 c 0,16.6 -13.4,30 -30,30 -16.6,0 -30,-13.4 -30,-30 0,-16.6 13.4,-30 30,-30 16.6,0 30,13.4 30,30 z" stroke-width="4px" stroke="#80E0FF" fill="#80E0FF"></path></svg>