<svg xmlns:xlink="http://www.w3.org/1999/xlink" xmlns="http://www.w3.org/2000/svg" version="1.2" baseProfile="tiny" width="110.6" height="75.6" viewBox="21 46 158 108"><path d="M25,50 l150,0 0,100 -150,0 z" stroke-width="4px" stroke="#000000" fill="#80E0FF" fill-opacity="1"></path><path d="m 80,120 c 0,-20 10,-32 50,-35 m -10,35 C 120,100 110,88 70,85" stroke-width="4px" stroke="#000000" fill="none"></path><circle cx="75" cy="90" r="6" stroke-width="4px" stroke="#000000" fill="black"></circle><circle cx="125" cy="90" r="6" stroke-width="4px" stroke="#000000" fill="black"></circle><path d="M25,150L175,50" stroke-width="4px" stroke="#000000" fill="black"></path><path d="M125,80 C150,80 150,120 125,120 L75,120 C50,120 50,80 75,80 Z" stroke-width="4px" stroke="#000000" fill="none"></path><circle cx="70" cy="125" r="5" stroke-width="4px" stroke="#000000" fill="none"></circle><circle cx="100" cy="125" r="5" stroke-width="4px" stroke="#000000" fill="none"></circle><circle cx="130" cy="125" r="5" stroke-width="4px" stroke="#000000" fill="none"></circle></svg>