<svg xmlns:xlink="http://www.w3.org/1999/xlink" xmlns="http://www.w3.org/2000/svg" version="1.2" baseProfile="tiny" width="110.6" height="75.6" viewBox="21 46 158 108"><path d="M25,50 l150,0 0,100 -150,0 z" stroke-width="4px" stroke="#000000" fill="#80E0FF" fill-opacity="1"></path><path d="m 60,85 80,0 0,30 -80,0 z" stroke-width="4px" stroke="#000000" fill="none"></path><path d="m 135,100 c 0,5.5 -4.5,10 -10,10 -5.5,0 -10,-4.5 -10,-10 0,-5.5 4.5,-10 10,-10 5.5,0 10,4.5 10,10 z m -25,0 c 0,5.5 -4.5,10 -10,10 -5.5,0 -10,-4.5 -10,-10 0,-5.5 4.5,-10 10,-10 5.5,0 10,4.5 10,10 z m -25,0 c 0,5.5 -4.5,10 -10,10 -5.5,0 -10,-4.5 -10,-10 0,-5.5 4.5,-10 10,-10 5.5,0 10,4.5 10,10 z" stroke-width="4px" stroke="none" fill="black"></path></svg>