<svg xmlns:xlink="http://www.w3.org/1999/xlink" xmlns="http://www.w3.org/2000/svg" version="1.2" baseProfile="tiny" width="89.6" height="110.6" viewBox="36 -14 128 158"><path d="m 75,100 c 0,5.523 -4.4772,10 -10,10 -5.5228,0 -10,-4.477 -10,-10 0,-5.5228 4.4772,-10 10,-10 5.5228,0 10,4.4772 10,10 z m 70,0 c 0,5.523 -4.477,10 -10,10 -5.523,0 -10,-4.477 -10,-10 0,-5.5228 4.477,-10 10,-10 5.523,0 10,4.4772 10,10 z m -35,0 c 0,5.523 -4.477,10 -10,10 -5.5228,0 -10,-4.477 -10,-10 0,-5.5228 4.4772,-10 10,-10 5.523,0 10,4.4772 10,10 z m -70,-40 0,80 120,0 0,-80 z" stroke-width="4px" stroke="#000000" fill="none"></path><path d="M 160,60 100,-5 M 40,60 100,-5" stroke-width="4px" stroke-dasharray="15,10" stroke="#000000" fill="none"></path></svg>