<svg xmlns="http://www.w3.org/2000/svg" version="1.2" baseProfile="tiny" width="389.12" height="389.12" viewBox="24 24 152 152"><path d="M 100,28 L172,100 100,172 28,100 100,28 Z" stroke-width="4" stroke="black" stroke-dasharray="5,5" fill="rgb(255,128,128)" fill-opacity="1" ></path><path d="m 80,120 c 0,-20 10,-32 50,-35 m -10,35 C 120,100 110,88 70,85" stroke-width="4" stroke="black" fill="none" ></path><circle cx="75" cy="90" r="6" stroke-width="4" stroke="black" fill="black" ></circle><circle cx="125" cy="90" r="6" stroke-width="4" stroke="black" fill="black" ></circle><path d="M60,130L140,70" stroke-width="4" stroke="black" fill="black" ></path><path d="M125,80 C150,80 150,120 125,120 L75,120 C50,120 50,80 75,80 Z" stroke-width="4" stroke="black" fill="none" ></path><circle cx="70" cy="125" r="5" stroke-width="4" stroke="black" fill="none" ></circle><circle cx="100" cy="125" r="5" stroke-width="4" stroke="black" fill="none" ></circle><circle cx="130" cy="125" r="5" stroke-width="4" stroke="black" fill="none" ></circle></svg>