<svg xmlns="http://www.w3.org/2000/svg" version="1.2" baseProfile="tiny" width="389.12" height="389.12" viewBox="24 24 152 152"><path d="M 100,28 L172,100 100,172 28,100 100,28 Z" stroke-width="4" stroke="black" stroke-dasharray="5,5" fill="rgb(255,128,128)" fill-opacity="1" ></path><path d="M60,130L140,70" stroke-width="4" stroke="black" fill="black" ></path><path d="m 32,95 c 10,0 0,15 11.5,15 18.8,0 0,-20 18.8,-20 18.8,0 0,20 18.8,20 18.8,0 0,-20 18.8,-20 18.8,0 0,20 18.8,20 18.8,0 0,-20 18.8,-20 18.8,0 0,20 18.8,20 11.5,0 1.5,-15 11.5,-15" stroke-width="4" stroke="black" fill="none" ></path><text x="100" y="77" text-anchor="middle" font-size="30" font-family="Arial" font-weight="bold" stroke-width="4" stroke="none" fill="black" >D</text></svg>